# xmcd
#
# Track frame offsets:
#	150
#	19108
#	30082
#	48424
#	66062
#	82809
#	99024
#	115678
#	137217
#	155784
#	173027
#	192272
#
# Disc length: 2771 seconds
# Revision: 0
# Processed by: cddbd v1.5.2PL0 Copyright (c) Steve Scherf et al.
# Submitted via: dBpowerAMP V12.0
#
DISCID=890ad10c
DTITLE=Johnny Rawls - Ace Of Spades
DYEAR=2009
DGENRE=Blues
TTITLE0=Drive All Night
TTITLE1=Ace Of Spades
TTITLE2=Going Back Home
TTITLE3=My Broken Heart
TTITLE4=I'm A Bluesman
TTITLE5=American Dream
TTITLE6=Can't Win For Losing
TTITLE7=Gasoline On The Fire
TTITLE8=Live For Today
TTITLE9=He's A Good Man
TTITLE10=Keep On Running Away
TTITLE11=Wish It Would Rain
EXTD=
EXTT0=
EXTT1=
EXTT2=
EXTT3=
EXTT4=
EXTT5=
EXTT6=
EXTT7=
EXTT8=
EXTT9=
EXTT10=
EXTT11=
PLAYORDER=
